<svg xmlns="http://www.w3.org/2000/svg" width="40" height="40" viewBox="0 0 40 40">
  <defs>
    <style>
      .cls-1 {
        fill: #ce3f71;
      }

      .cls-2 {
        fill: #b42051;
      }

      .cls-3 {
        fill: #f5f4f5;
      }
    </style>
  </defs>
  <g id="adopets-logo-mobile" transform="translate(20 20)">
    <g id="Simbolo" transform="translate(-20 -20)">
      <rect id="Rectangle_1917" data-name="Rectangle 1917" class="cls-1" width="40" height="40" rx="9.223"/>
      <g id="Group_4238" data-name="Group 4238" transform="translate(6.211 7.806)">
        <g id="Group_4236" data-name="Group 4236" transform="translate(0.001 0.551)">
          <path id="Path_2810" data-name="Path 2810" class="cls-2" d="M41.376,51.759a.43.43,0,0,0,.557-.242,4.4,4.4,0,0,1,4.12-2.8,4.456,4.456,0,0,1,4.13,2.829.43.43,0,0,0,.8-.31,5.321,5.321,0,0,0-4.931-3.379,5.259,5.259,0,0,0-4.92,3.348A.43.43,0,0,0,41.376,51.759Z" transform="translate(-40.137 -47.853)"/>
          <path id="Path_2811" data-name="Path 2811" class="cls-2" d="M131.353,51.8a.429.429,0,0,0,.555-.247,4.455,4.455,0,0,1,4.134-2.84,4.4,4.4,0,0,1,4.127,2.823.43.43,0,1,0,.8-.312,5.255,5.255,0,0,0-4.928-3.37,5.319,5.319,0,0,0-4.936,3.391A.43.43,0,0,0,131.353,51.8Z" transform="translate(-114.398 -47.853)"/>
          <path id="Path_2812" data-name="Path 2812" class="cls-2" d="M62.715,93.163a.43.43,0,0,0-.43.43,6.249,6.249,0,1,1-12.5.232c1.086-.707,5.977-4.029,6.628-6.859a4.228,4.228,0,0,0,.207-1.3,4.292,4.292,0,0,0-7.268-3.1,4.294,4.294,0,0,0-7.271,3.1,4.228,4.228,0,0,0,.206,1.3c.648,2.826,5.532,6.143,6.628,6.856a6.249,6.249,0,1,1-12.5-.229.43.43,0,0,0-.858,0,7.109,7.109,0,0,0,9.681,6.628,4.528,4.528,0,0,0,8.214,0,7.109,7.109,0,0,0,9.685-6.628A.43.43,0,0,0,62.715,93.163Zm-19.589-6.4-.011-.041a3.37,3.37,0,0,1-.17-1.055,3.435,3.435,0,0,1,6.082-2.192l.332.4.33-.4a3.433,3.433,0,0,1,6.077,2.193,3.372,3.372,0,0,1-.17,1.055l-.011.041c-.25,1.124-1.433,2.593-3.42,4.246a32.7,32.7,0,0,1-2.807,2.077,32.674,32.674,0,0,1-2.8-2.071C44.562,89.355,43.376,87.885,43.127,86.759Zm6.227,15.224a3.68,3.68,0,0,1-3.326-2.121,7.16,7.16,0,0,0,2.9-2.882V98.7a.43.43,0,1,0,.859,0v-1.72a7.16,7.16,0,0,0,2.9,2.88A3.671,3.671,0,0,1,49.354,101.983Z" transform="translate(-35.567 -75.513)"/>
        </g>
        <g id="Group_4237" data-name="Group 4237">
          <path id="Path_2813" data-name="Path 2813" class="cls-3" d="M41.376,48.606a.43.43,0,0,0,.557-.242,4.4,4.4,0,0,1,4.12-2.8,4.456,4.456,0,0,1,4.13,2.829.43.43,0,0,0,.8-.31A5.321,5.321,0,0,0,46.054,44.7a5.259,5.259,0,0,0-4.92,3.349A.43.43,0,0,0,41.376,48.606Z" transform="translate(-40.136 -44.7)"/>
          <path id="Path_2814" data-name="Path 2814" class="cls-3" d="M131.353,48.647a.429.429,0,0,0,.555-.247,4.455,4.455,0,0,1,4.134-2.84,4.4,4.4,0,0,1,4.127,2.823.43.43,0,1,0,.8-.312,5.255,5.255,0,0,0-4.928-3.37,5.319,5.319,0,0,0-4.936,3.391.43.43,0,0,0,.247.556Z" transform="translate(-114.397 -44.7)"/>
          <path id="Path_2815" data-name="Path 2815" class="cls-3" d="M62.712,90.014a.43.43,0,0,0-.43.43,6.249,6.249,0,1,1-12.5.232c1.086-.707,5.977-4.029,6.628-6.859a4.228,4.228,0,0,0,.207-1.3,4.292,4.292,0,0,0-7.268-3.1,4.294,4.294,0,0,0-7.271,3.1,4.228,4.228,0,0,0,.206,1.3c.648,2.826,5.532,6.143,6.628,6.856a6.249,6.249,0,1,1-12.5-.229.43.43,0,1,0-.858,0,7.109,7.109,0,0,0,9.681,6.628,4.528,4.528,0,0,0,8.214,0,7.109,7.109,0,0,0,9.685-6.628A.43.43,0,0,0,62.712,90.014Zm-19.589-6.4-.011-.041a3.37,3.37,0,0,1-.17-1.055,3.435,3.435,0,0,1,6.082-2.192l.332.4.33-.4a3.433,3.433,0,0,1,6.077,2.193,3.372,3.372,0,0,1-.17,1.055l-.011.041c-.25,1.124-1.433,2.593-3.42,4.246a32.707,32.707,0,0,1-2.807,2.076,32.674,32.674,0,0,1-2.8-2.07C44.559,86.206,43.374,84.736,43.124,83.61Zm6.227,15.224a3.68,3.68,0,0,1-3.326-2.121,7.16,7.16,0,0,0,2.9-2.882v1.72a.43.43,0,1,0,.859,0V93.83a7.16,7.16,0,0,0,2.9,2.88,3.671,3.671,0,0,1-3.327,2.123Z" transform="translate(-35.563 -72.363)"/>
        </g>
      </g>
    </g>
  </g>
</svg>
